<?xml version="1.0" encoding="UTF-8" standalone="no"?>
<svg
   xmlns:dc="http://purl.org/dc/elements/1.1/"
   xmlns:cc="http://creativecommons.org/ns#"
   xmlns:rdf="http://www.w3.org/1999/02/22-rdf-syntax-ns#"
   xmlns:svg="http://www.w3.org/2000/svg"
   xmlns="http://www.w3.org/2000/svg"
   xmlns:sodipodi="http://sodipodi.sourceforge.net/DTD/sodipodi-0.dtd"
   xmlns:inkscape="http://www.inkscape.org/namespaces/inkscape"
   width="189.16786mm"
   height="114.0793mm"
   viewBox="0 0 189.16786 114.0793"
   version="1.1"
   id="svg8"
   inkscape:version="1.0.1 (0767f8302a, 2020-10-17)"
   sodipodi:docname="turbo.svg">
  <defs
     id="defs2">
    <inkscape:path-effect
       effect="simplify"
       id="path-effect837"
       is_visible="true"
       lpeversion="1"
       steps="1"
       threshold="0.00961538"
       smooth_angles="360"
       helper_size="0"
       simplify_individual_paths="false"
       simplify_just_coalesce="false" />
    <filter
       inkscape:collect="always"
       style="color-interpolation-filters:sRGB"
       id="filter1110"
       x="-1.1513302e-05"
       width="1.000023"
       y="-5.7768048e-05"
       height="1.0001155">
      <feGaussianBlur
         inkscape:collect="always"
         stdDeviation="0.00081648183"
         id="feGaussianBlur1112" />
    </filter>
  </defs>
  <sodipodi:namedview
     id="base"
     pagecolor="#ffffff"
     bordercolor="#666666"
     borderopacity="1.0"
     inkscape:pageopacity="0.0"
     inkscape:pageshadow="2"
     inkscape:zoom="0.49497475"
     inkscape:cx="529.50447"
     inkscape:cy="345.76849"
     inkscape:document-units="mm"
     inkscape:current-layer="layer1"
     inkscape:document-rotation="0"
     showgrid="false"
     inkscape:window-width="1366"
     inkscape:window-height="731"
     inkscape:window-x="1600"
     inkscape:window-y="0"
     inkscape:window-maximized="1" />
  <metadata
     id="metadata5">
    <rdf:RDF>
      <cc:Work
         rdf:about="">
        <dc:format>image/svg+xml</dc:format>
        <dc:type
           rdf:resource="http://purl.org/dc/dcmitype/StillImage" />
        <dc:title></dc:title>
      </cc:Work>
    </rdf:RDF>
  </metadata>
  <g
     inkscape:label="Layer 1"
     inkscape:groupmode="layer"
     id="layer1"
     transform="translate(-6.8527724,-114.4736)">
    <g
       id="g873"
       transform="translate(-2.9418381)">
      <path
         style="opacity:0.995;fill:none;stroke:#375497;stroke-width:0.822;stroke-linecap:butt;stroke-linejoin:miter;stroke-miterlimit:4;stroke-dasharray:19.728, 0.822;stroke-dashoffset:0;stroke-opacity:1;filter:url(#filter1110)"
         d="m 12.211966,138.00224 c 12.899404,13.86623 29.884945,27.72793 49.918508,26.14898 23.348538,-1.84022 40.830966,-19.00122 60.863156,-29.13153 13.34075,-6.74644 29.61392,-6.12549 42.66414,1.52482 6.18122,3.62356 11.69462,8.28531 16.75353,13.33386"
         id="path835"
         inkscape:path-effect="#path-effect837"
         inkscape:original-d="M 12.211966,138.00224 C 87.144169,218.50743 114.09264,81.559712 182.4113,149.87837"
         sodipodi:nodetypes="cc" />
      <path
         fill="currentColor"
         d="m 12.229054,123.24483 c 0.503947,0 0.912808,-0.40886 0.912808,-0.91281 0,-0.50395 -0.408861,-0.91281 -0.912808,-0.91281 -0.503946,0 -0.912809,0.40886 -0.912809,0.91281 0,0.50395 0.408863,0.91281 0.912809,0.91281 z m 7.302474,0 c 0.503945,0 0.912809,-0.40886 0.912809,-0.91281 0,-0.50395 -0.408864,-0.91281 -0.912809,-0.91281 -0.503947,0 -0.912809,0.40886 -0.912809,0.91281 0,0.50395 0.408862,0.91281 0.912809,0.91281 z m 2.390418,7.07618 -0.836742,-2.09186 -0.781592,0.88239 -0.03804,0.3461 0.526767,1.31596 c 0.09508,0.23772 0.323287,0.38225 0.564801,0.38225 0.07607,0 0.152135,-0.0134 0.226301,-0.0437 0.311875,-0.12551 0.464011,-0.47923 0.3385,-0.7911 z m -0.650376,-3.98974 -0.351812,-1.52516 c -0.08748,-0.38033 -0.353713,-0.69981 -0.713132,-0.85385 -0.351812,-0.15213 -0.741659,-0.12741 -1.066846,0.0627 -0.431683,0.25483 -0.754969,0.65608 -0.91471,1.1296 l -0.214891,0.64468 -0.30427,0.19396 v -1.82562 c 0,-0.16734 -0.136921,-0.30426 -0.30427,-0.30426 h -3.042698 c -0.167347,0 -0.304269,0.13692 -0.304269,0.30426 v 1.82562 l -0.306172,-0.19396 -0.21489,-0.64468 c -0.15784,-0.47541 -0.483028,-0.87477 -0.914711,-1.1296 -0.327089,-0.19017 -0.715033,-0.21489 -1.066845,-0.0627 -0.359419,0.15404 -0.625654,0.47352 -0.713132,0.85385 l -0.349911,1.52516 c -0.08748,0.38034 0.01332,0.7835 0.273843,1.07825 l 1.277934,1.44338 0.19207,1.76096 c 0.03423,0.30998 0.296662,0.54199 0.604735,0.54199 0.02282,0 0.04374,-0.002 0.06655,-0.004 0.334697,-0.0361 0.574309,-0.3366 0.538177,-0.6713 l -0.19207,-1.76476 c -0.02853,-0.24723 -0.131217,-0.47732 -0.296663,-0.66559 l -0.823429,-0.93183 0.334696,-1.33689 0.129315,0.38794 c 0.07797,0.23772 0.2263,0.445 0.465912,0.61996 l 0.971762,0.61804 c 0.08747,0.0551 0.230103,0.0875 0.327089,0.0951 h 3.042698 c 0.09698,-0.007 0.239613,-0.0399 0.327091,-0.0951 l 0.97176,-0.61804 c 0.239613,-0.17496 0.387944,-0.38034 0.465914,-0.61996 l 0.129314,-0.38794 0.334697,1.33689 -0.82343,0.93183 c -0.165447,0.18827 -0.268138,0.41836 -0.296663,0.66558 l -0.19207,1.76477 c -0.03614,0.3347 0.205382,0.63516 0.538178,0.6713 0.02282,0.002 0.04374,0.004 0.06655,0.004 0.306171,0 0.570505,-0.23011 0.604736,-0.54198 l 0.19207,-1.76096 1.277932,-1.44338 c 0.258631,-0.29476 0.361322,-0.69792 0.273844,-1.07826 z m -10.596194,1.89788 -0.8367413,2.09186 c -0.1255111,0.31186 0.026619,0.66559 0.3384993,0.7911 0.319484,0.12551 0.667492,-0.0324 0.791102,-0.33851 l 0.526767,-1.31596 -0.03803,-0.3461 z"
         id="path839"
         style="fill:#fc9982;fill-opacity:1;stroke-width:0.019;stroke-miterlimit:4;stroke-dasharray:none" />
      <path
         fill="currentColor"
         d="m 42.466426,146.03881 h -0.304284 v -2.05582 c 0,-0.24152 -0.09699,-0.47355 -0.26815,-0.6447 l -1.899874,-1.89988 c -0.171159,-0.17115 -0.403176,-0.26814 -0.644701,-0.26814 h -0.838683 v -0.91286 c 0,-0.50396 -0.408882,-0.91285 -0.912852,-0.91285 h -4.868545 c -0.50397,0 -0.912852,0.40889 -0.912852,0.91285 v 0.91286 h -1.064994 c -0.08368,0 -0.152142,0.0685 -0.152142,0.15214 v 0.30428 c 0,0.0836 0.06846,0.15214 0.152142,0.15214 h 5.172829 c 0.08368,0 0.152142,0.0685 0.152142,0.15215 v 0.30428 c 0,0.0836 -0.06846,0.15214 -0.152142,0.15214 h -4.564261 c -0.08368,0 -0.152142,0.0685 -0.152142,0.15214 v 0.30429 c 0,0.0836 0.06846,0.15214 0.152142,0.15214 h 3.955693 c 0.08368,0 0.152142,0.0685 0.152142,0.15214 v 0.30429 c 0,0.0836 -0.06846,0.15214 -0.152142,0.15214 h -4.564261 c -0.08368,0 -0.152142,0.0685 -0.152142,0.15214 v 0.30428 c 0,0.0836 0.06846,0.15215 0.152142,0.15215 h 3.955692 c 0.08368,0 0.152142,0.0685 0.152142,0.15214 v 0.30428 c 0,0.0836 -0.06846,0.15214 -0.152142,0.15214 h -2.890698 v 2.43428 c 0,1.00793 0.817764,1.8257 1.825704,1.8257 1.007941,0 1.825705,-0.81777 1.825705,-1.8257 h 2.434272 c 0,1.00793 0.817763,1.8257 1.825704,1.8257 1.007941,0 1.825704,-0.81777 1.825704,-1.8257 h 0.912852 c 0.167356,0 0.304284,-0.13693 0.304284,-0.30429 v -0.60857 c 0,-0.16735 -0.136928,-0.30428 -0.304284,-0.30428 z m -8.824237,2.12999 c -0.503969,0 -0.912852,-0.40889 -0.912852,-0.91285 0,-0.50397 0.408883,-0.91286 0.912852,-0.91286 0.503971,0 0.912852,0.40889 0.912852,0.91286 0,0.50396 -0.408881,0.91285 -0.912852,0.91285 z m 6.085681,0 c -0.50397,0 -0.912852,-0.40889 -0.912852,-0.91285 0,-0.50397 0.408882,-0.91286 0.912852,-0.91286 0.503971,0 0.912852,0.40889 0.912852,0.91286 0,0.50396 -0.408881,0.91285 -0.912852,0.91285 z m 1.52142,-3.95569 h -2.738556 v -2.12999 h 0.838683 l 1.899873,1.89987 z"
         id="path850"
         style="fill:#fb7150;fill-opacity:1;stroke-width:0.0190178" />
      <path
         fill="currentColor"
         d="M 75.359234,152.8492 H 63.79666 c -0.168114,0 -0.304278,0.13616 -0.304278,0.30427 v 0.60856 c 0,0.16811 0.136164,0.30428 0.304278,0.30428 h 11.562574 c 0.168113,0 0.304278,-0.13617 0.304278,-0.30428 v -0.60856 c 0,-0.16811 -0.136165,-0.30427 -0.304278,-0.30427 z m -10.335002,-2.02973 c 0.119425,0.13009 0.287162,0.20387 0.462693,0.20367 l 2.48253,-0.004 a 1.2479211,1.2479211 0 0 0 0.563676,-0.1354 l 5.5333,-2.80791 c 0.508526,-0.25807 0.964372,-0.62644 1.274546,-1.10891 0.348208,-0.54161 0.386052,-0.93357 0.248557,-1.21045 -0.137115,-0.2771 -0.470491,-0.48058 -1.107763,-0.52203 -0.567669,-0.0369 -1.132295,0.11258 -1.640821,0.37046 l -1.873402,0.95068 -4.159104,-1.56058 a 0.33849054,0.33849054 0 0 0 -0.342314,-0.0211 l -1.250393,0.63462 c -0.202915,0.10285 -0.25198,0.37368 -0.09832,0.54256 l 2.970898,1.86562 -1.962785,0.99612 -1.375908,-0.69357 a 0.33858564,0.33858564 0 0 0 -0.30561,3.9e-4 l -0.763169,0.38738 c -0.198541,0.10078 -0.250838,0.36362 -0.105927,0.53401 z"
         id="path861"
         style="fill:#fa481e;fill-opacity:1;stroke-width:0.0190174" />
      <path
         fill="currentColor"
         d="m 115.25144,131.16487 h -11.56279 c -0.16811,0 -0.30428,0.13616 -0.30428,0.30429 v 0.60856 c 0,0.16812 0.13617,0.30429 0.30428,0.30429 h 11.56279 c 0.16813,0 0.30429,-0.13617 0.30429,-0.30429 v -0.60856 c 0,-0.16813 -0.13616,-0.30429 -0.30429,-0.30429 z m -11.01488,-4.60876 1.68763,1.52142 a 1.1906444,1.1906444 0 0 0 0.48438,0.26491 l 5.46951,1.49005 c 0.50359,0.13712 1.03761,0.16583 1.54043,0.0259 0.56426,-0.15728 0.82613,-0.40336 0.89859,-0.67912 0.0728,-0.27576 -0.0329,-0.62207 -0.44444,-1.04522 -0.36666,-0.37692 -0.84344,-0.62359 -1.34703,-0.76071 l -1.85442,-0.50511 -1.90862,-3.64855 c -0.0287,-0.11052 -0.1132,-0.19684 -0.22175,-0.22651 l -1.23787,-0.33718 c -0.20083,-0.0548 -0.39747,0.10114 -0.39385,0.31266 l 0.91133,3.1229 -1.94362,-0.52946 -0.5247,-1.29093 c -0.0367,-0.093 -0.11429,-0.16297 -0.20958,-0.18883 l -0.75557,-0.20597 c -0.19664,-0.0537 -0.39043,0.0951 -0.39405,0.302 l 0.005,1.93563 c 0.004,0.16944 0.11466,0.32976 0.23924,0.44216 z"
         id="path872"
         style="fill:#e12e05;fill-opacity:1;stroke-width:0.0190178" />
      <path
         fill="currentColor"
         d="m 158.18675,121.16785 h -0.30429 v -2.05582 c 0,-0.24153 -0.097,-0.47355 -0.26815,-0.64471 l -1.89987,-1.89987 c -0.17116,-0.17116 -0.40318,-0.26815 -0.64469,-0.26815 h -0.8387 v -0.91285 c 0,-0.50397 -0.40887,-0.91285 -0.91285,-0.91285 h -4.86854 c -0.50397,0 -0.91286,0.40888 -0.91286,0.91285 v 0.91285 h -1.06499 c -0.0836,0 -0.15214,0.0685 -0.15214,0.15214 v 0.30429 c 0,0.0836 0.0685,0.15214 0.15214,0.15214 h 5.17283 c 0.0836,0 0.15214,0.0685 0.15214,0.15214 v 0.30428 c 0,0.0836 -0.0685,0.15215 -0.15214,0.15215 h -4.56426 c -0.0836,0 -0.15214,0.0685 -0.15214,0.15214 v 0.30428 c 0,0.0836 0.0685,0.15214 0.15214,0.15214 h 3.95569 c 0.0836,0 0.15214,0.0685 0.15214,0.15215 v 0.30428 c 0,0.0836 -0.0685,0.15214 -0.15214,0.15214 h -4.56426 c -0.0836,0 -0.15214,0.0685 -0.15214,0.15215 V 119.19 c 0,0.0836 0.0685,0.15214 0.15214,0.15214 h 3.95569 c 0.0836,0 0.15214,0.0685 0.15214,0.15214 v 0.30429 c 0,0.0836 -0.0685,0.15214 -0.15214,0.15214 h -2.8907 v 2.43427 c 0,1.00794 0.81777,1.82571 1.82571,1.82571 1.00795,0 1.8257,-0.81777 1.8257,-1.82571 h 2.43428 c 0,1.00794 0.81776,1.82571 1.8257,1.82571 1.00795,0 1.8257,-0.81777 1.8257,-1.82571 h 0.91286 c 0.16735,0 0.30428,-0.13693 0.30428,-0.30428 v -0.60857 c 0,-0.16736 -0.13693,-0.30428 -0.30428,-0.30428 z m -8.82424,2.12998 c -0.50397,0 -0.91285,-0.40888 -0.91285,-0.91285 0,-0.50397 0.40888,-0.91285 0.91285,-0.91285 0.50398,0 0.91285,0.40888 0.91285,0.91285 0,0.50397 -0.40887,0.91285 -0.91285,0.91285 z m 6.08568,0 c -0.50397,0 -0.91285,-0.40888 -0.91285,-0.91285 0,-0.50397 0.40888,-0.91285 0.91285,-0.91285 0.50398,0 0.91285,0.40888 0.91285,0.91285 0,0.50397 -0.40887,0.91285 -0.91285,0.91285 z m 1.52142,-3.95569 h -2.73856 v -2.12999 h 0.8387 l 1.89986,1.89988 z"
         id="path899"
         style="fill:#af2404;fill-opacity:1;stroke-width:0.0190178" />
      <path
         d="m 193.82948,139.85423 c -0.8066,0 -1.46658,-0.65997 -1.46658,-1.46658 0,-0.80661 0.65998,-1.46658 1.46658,-1.46658 0.80662,0 1.46655,0.65997 1.46655,1.46658 0,0.80661 -0.65993,1.46658 -1.46655,1.46658 z m 3.66641,-2.93316 h 1.46658 v 0.29333 c -0.0735,1.61322 -0.58664,2.8598 -1.68655,3.73975 -0.36664,0.29333 -0.80661,0.5133 -1.24658,0.65996 v 9.97267 h -1.46658 v -4.39971 h -1.46658 v 4.39971 h -1.46655 v -8.72608 c -0.22006,0.0735 -0.36664,0.1466 -0.43998,0.22005 -0.65997,0.5133 -1.01926,1.17327 -1.0266,2.27319 v 0.36663 h -1.46658 v -0.36663 c 0,-1.46655 0.52064,-2.63249 1.54723,-3.51243 0.80664,-0.65997 2.1192,-1.25393 3.58578,-1.25393 1.46655,0 1.9652,-0.33731 2.55183,-0.77728 0.73328,-0.58661 1.11458,-1.42257 1.11458,-2.52248 z m -9.5327,10.266 h 2.19986 v 4.39971 h -2.19986 z"
         id="path4"
         style="fill:#7d1a03;fill-opacity:1;stroke-width:0.733284" />
    </g>
    <g
       id="g864"
       transform="translate(22.754175)">
      <path
         fill="currentColor"
         d="m 141.64934,208.54782 h -1.5 v -10.13438 c 0,-1.19062 -0.47812,-2.33437 -1.32187,-3.17812 l -9.36562,-9.36562 c -0.84376,-0.84375 -1.98751,-1.32188 -3.17813,-1.32188 h -4.13438 v -4.5 c 0,-2.48437 -2.01562,-4.5 -4.5,-4.5 H 93.649338 c -2.484374,0 -4.5,2.01563 -4.5,4.5 v 4.5 h -5.249999 c -0.4125,0 -0.75,0.3375 -0.75,0.75 v 1.5 c 0,0.4125 0.3375,0.75 0.75,0.75 h 25.499991 c 0.4125,0 0.75,0.3375 0.75,0.75 v 1.5 c 0,0.4125 -0.3375,0.75 -0.75,0.75 H 86.899339 c -0.4125,0 -0.75,0.3375 -0.75,0.75 v 1.5 c 0,0.4125 0.3375,0.75 0.75,0.75 h 19.499991 c 0.4125,0 0.75,0.3375 0.75,0.75 v 1.5 c 0,0.4125 -0.3375,0.75 -0.75,0.75 H 83.899339 c -0.4125,0 -0.75,0.3375 -0.75,0.75 v 1.5 c 0,0.4125 0.3375,0.75 0.75,0.75 h 19.499991 c 0.4125,0 0.75,0.3375 0.75,0.75 v 1.5 c 0,0.4125 -0.3375,0.75 -0.75,0.75 H 89.149338 v 12 c 0,4.96875 4.03125,8.99999 8.999998,8.99999 4.968744,0 8.999994,-4.03124 8.999994,-8.99999 h 12 c 0,4.96875 4.03126,8.99999 9.00001,8.99999 4.96875,0 9,-4.03124 9,-8.99999 h 4.5 c 0.825,0 1.5,-0.675 1.5,-1.5 v -3 c 0,-0.825 -0.675,-1.5 -1.5,-1.5 z m -43.500004,10.49999 c -2.484372,0 -4.499998,-2.01562 -4.499998,-4.49999 0,-2.48438 2.015626,-4.5 4.499998,-4.5 2.484374,0 4.499994,2.01562 4.499994,4.5 0,2.48437 -2.01562,4.49999 -4.499994,4.49999 z m 30.000004,0 c -2.48438,0 -4.5,-2.01562 -4.5,-4.49999 0,-2.48438 2.01562,-4.5 4.5,-4.5 2.48438,0 4.5,2.01562 4.5,4.5 0,2.48437 -2.01562,4.49999 -4.5,4.49999 z m 7.5,-19.49999 h -13.5 v -10.5 h 4.13438 l 9.36562,9.36562 z"
         id="path917"
         style="fill:#fb6542;fill-opacity:1;stroke-width:0.094;stroke-miterlimit:4;stroke-dasharray:none" />
      <path
         style="fill:none;stroke:#375497;stroke-width:0.822;stroke-linecap:butt;stroke-linejoin:miter;stroke-miterlimit:4;stroke-dasharray:none;stroke-opacity:1"
         d="m 73.801677,170.54274 c 0,56.63553 -0.04404,57.99687 -0.04404,57.99687"
         id="path845" />
      <g
         id="g855"
         transform="translate(0,8.0396018)">
        <text
           xml:space="preserve"
           style="font-style:normal;font-weight:normal;font-size:10.5833px;line-height:1.25;font-family:sans-serif;fill:#375497;fill-opacity:1;stroke:none;stroke-width:0.265;stroke-miterlimit:4;stroke-dasharray:none"
           x="13.550695"
           y="185.90614"
           id="text1000"><tspan
             id="tspan998"
             x="13.550695"
             y="185.90614"
             style="font-style:normal;font-variant:normal;font-weight:normal;font-stretch:normal;font-size:11.2889px;font-family:'Sansita Swashed', '@wght=400';-inkscape-font-specification:'Sansita Swashed, @wght=400';font-variant-ligatures:normal;font-variant-caps:normal;font-variant-numeric:normal;font-variant-east-asian:normal;fill:#375497;fill-opacity:1;stroke-width:0.265;stroke-miterlimit:4;stroke-dasharray:none"
             sodipodi:role="line">Turbo</tspan></text>
        <text
           xml:space="preserve"
           style="font-style:normal;font-weight:normal;font-size:10.5833px;line-height:1.25;font-family:sans-serif;fill:#000000;fill-opacity:1;stroke:none;stroke-width:0.264583"
           x="25.49036"
           y="203.36433"
           id="text849"><tspan
             sodipodi:role="line"
             id="tspan847"
             x="25.49036"
             y="203.36433"
             style="font-style:normal;font-variant:normal;font-weight:normal;font-stretch:normal;font-size:11.2889px;font-family:'Sansita Swashed', '@wght=400';-inkscape-font-specification:'Sansita Swashed, @wght=400';font-variant-ligatures:normal;font-variant-caps:normal;font-variant-numeric:normal;font-variant-east-asian:normal;fill:#fb6542;fill-opacity:1;stroke-width:0.264583">Express</tspan></text>
      </g>
    </g>
  </g>
</svg>
