<?xml version="1.0" encoding="UTF-8" standalone="no"?>
<svg
   xmlns:dc="http://purl.org/dc/elements/1.1/"
   xmlns:cc="http://creativecommons.org/ns#"
   xmlns:rdf="http://www.w3.org/1999/02/22-rdf-syntax-ns#"
   xmlns:svg="http://www.w3.org/2000/svg"
   xmlns="http://www.w3.org/2000/svg"
   xmlns:sodipodi="http://sodipodi.sourceforge.net/DTD/sodipodi-0.dtd"
   xmlns:inkscape="http://www.inkscape.org/namespaces/inkscape"
   width="28.486414mm"
   height="12.7mm"
   version="1.1"
   viewBox="0 0 28.486414 12.700001"
   id="svg18"
   sodipodi:docname="logo.svg"
   inkscape:version="1.0.1 (0767f8302a, 2020-10-17)">
  <metadata
     id="metadata24">
    <rdf:RDF>
      <cc:Work
         rdf:about="">
        <dc:format>image/svg+xml</dc:format>
        <dc:type
           rdf:resource="http://purl.org/dc/dcmitype/StillImage" />
        <dc:title />
      </cc:Work>
    </rdf:RDF>
  </metadata>
  <defs
     id="defs22" />
  <sodipodi:namedview
     pagecolor="#ffffff"
     bordercolor="#666666"
     borderopacity="1"
     objecttolerance="10"
     gridtolerance="10"
     guidetolerance="10"
     inkscape:pageopacity="0"
     inkscape:pageshadow="2"
     inkscape:window-width="1528"
     inkscape:window-height="836"
     id="namedview20"
     showgrid="false"
     fit-margin-top="0"
     fit-margin-left="0"
     fit-margin-right="0"
     fit-margin-bottom="0"
     inkscape:zoom="0.80224403"
     inkscape:cx="255.67797"
     inkscape:cy="219.57273"
     inkscape:window-x="72"
     inkscape:window-y="27"
     inkscape:window-maximized="1"
     inkscape:current-layer="svg18"
     inkscape:document-rotation="0" />
  <g
     transform="matrix(0.18563744,0,0,0.17135764,-5.0129,-13.015984)"
     id="g16">
    <path
       d="m 178.84,122.7 h -1.6145 v -10.908 c 0,-1.2815 -0.51461,-2.5125 -1.4227,-3.4206 l -10.08,-10.08 c -0.90813,-0.90813 -2.1392,-1.4227 -3.4206,-1.4227 h -4.4498 v -4.8434 c 0,-2.6739 -2.1694,-4.8434 -4.8434,-4.8434 h -25.831 c -2.6739,0 -4.8434,2.1694 -4.8434,4.8434 v 4.8434 h -5.6506 c -0.44397,0 -0.80723,0.36325 -0.80723,0.80722 v 1.6145 c 0,0.44397 0.36326,0.80723 0.80723,0.80723 h 27.446 c 0.44397,0 0.80723,0.36325 0.80723,0.80722 v 1.6145 c 0,0.44397 -0.36326,0.80723 -0.80723,0.80723 h -24.217 c -0.44398,0 -0.80723,0.36325 -0.80723,0.80722 v 1.6145 c 0,0.44397 0.36325,0.80722 0.80723,0.80722 h 20.988 c 0.44397,0 0.80723,0.36326 0.80723,0.80723 v 1.6145 c 0,0.44397 -0.36326,0.80723 -0.80723,0.80723 h -24.217 c -0.44397,0 -0.80723,0.36325 -0.80723,0.80722 v 1.6145 c 0,0.44397 0.36326,0.80722 0.80723,0.80722 h 20.988 c 0.44398,0 0.80723,0.36326 0.80723,0.80723 v 1.6144 c 0,0.44398 -0.36325,0.80723 -0.80723,0.80723 h -15.337 v 12.916 c 0,5.3479 4.3388,9.6867 9.6867,9.6867 5.3479,0 9.6867,-4.3388 9.6867,-9.6867 h 12.916 c 0,5.3479 4.3388,9.6867 9.6867,9.6867 5.3479,0 9.6867,-4.3388 9.6867,-9.6867 h 4.8434 c 0.88794,0 1.6144,-0.7265 1.6144,-1.6144 v -3.2289 c 0,-0.88795 -0.72651,-1.6145 -1.6144,-1.6145 z m -46.819,11.301 c -2.6739,0 -4.8434,-2.1694 -4.8434,-4.8434 0,-2.674 2.1694,-4.8434 4.8434,-4.8434 2.674,0 4.8434,2.1694 4.8434,4.8434 0,2.674 -2.1694,4.8434 -4.8434,4.8434 z m 32.289,0 c -2.6739,0 -4.8434,-2.1694 -4.8434,-4.8434 0,-2.674 2.1694,-4.8434 4.8434,-4.8434 2.674,0 4.8434,2.1694 4.8434,4.8434 0,2.674 -2.1694,4.8434 -4.8434,4.8434 z m 8.0723,-20.988 h -14.53 v -11.301 h 4.4498 l 10.08,10.08 z"
       fill="currentColor"
       style="opacity:0.98;fill:#375497;stroke-width:0.1009"
       id="path2" />
    <path
       d="m 105.58,75.958 v 74.114"
       style="opacity:0.98;fill:none;stroke:#375497;stroke-width:1.165"
       id="path4" />
    <g
       style="opacity:0.98"
       id="g14">
      <text
         x="25.964615"
         y="106.09138"
         style="font-size:18.064px;line-height:1.25;font-family:sans-serif;fill:#fb6542;stroke-width:0.45161"
         xml:space="preserve"
         id="text8"><tspan
           x="25.964615"
           y="106.09138"
           style="font-size:17.639px;font-family:'Sansita Swashed', '@wght=400';font-variant-ligatures:normal;font-variant-caps:normal;font-variant-numeric:normal;font-variant-east-asian:normal;fill:#fb6542;stroke-width:0.45161"
           id="tspan6">Turbo</tspan></text>
      <text
         x="38.153488"
         y="129.70969"
         style="font-size:15.418px;line-height:1.25;font-family:sans-serif;fill:#375497;stroke-width:0.38546"
         xml:space="preserve"
         id="text12"><tspan
           x="38.153488"
           y="129.70969"
           style="font-size:17.639px;font-family:'Sansita Swashed', '@wght=400';font-variant-ligatures:normal;font-variant-caps:normal;font-variant-numeric:normal;font-variant-east-asian:normal;fill:#375497;stroke-width:0.38546"
           id="tspan10">Express</tspan></text>
    </g>
  </g>
</svg>
